<?xml version="1.0" encoding="UTF-8"?>
<svg id="Layer_2" data-name="Layer 2" xmlns="http://www.w3.org/2000/svg" viewBox="0 0 436.74 334.74">
  <defs>
    <style>
      .cls-1 {
        fill: #009245;
        opacity: .67;
      }

      .cls-2 {
        fill: #c69c6d;
      }

      .cls-3 {
        fill: #f2f2f2;
        stroke: #999;
        stroke-miterlimit: 10;
      }

      .cls-4 {
        fill: #29abe2;
        opacity: .69;
      }

      .cls-5 {
        fill: #ff7bac;
      }
    </style>
  </defs>
  <g id="Layer_1-2" data-name="Layer 1">
    <g>
      <polygon class="cls-1" points="0 334.38 124.62 334.38 124.62 169.97 62.31 63.89 0 169.97 0 334.38"/>
      <polygon class="cls-4" points="281.45 334.38 436.74 334.38 436.74 182.12 359.1 83.88 281.45 182.12 281.45 334.38"/>
      <polygon class="cls-5" points="320.03 90.86 320.03 334.74 108.66 334.74 108.66 101.62 108.66 90.86 214.34 0 320.03 90.86"/>
      <rect class="cls-3" x="116.43" y="87.14" width="32.31" height="26.63"/>
      <rect class="cls-3" x="117.52" y="88.45" width="14.19" height="10.91"/>
      <rect class="cls-3" x="117.52" y="101.33" width="14.19" height="10.91"/>
      <rect class="cls-3" x="133.46" y="88.45" width="14.19" height="10.91"/>
      <rect class="cls-3" x="133.46" y="101.33" width="14.19" height="10.91"/>
      <rect class="cls-3" x="174.58" y="86.92" width="32.31" height="26.63"/>
      <rect class="cls-3" x="175.67" y="88.23" width="14.19" height="10.91"/>
      <rect class="cls-3" x="175.67" y="101.11" width="14.19" height="10.91"/>
      <rect class="cls-3" x="191.61" y="88.23" width="14.19" height="10.91"/>
      <rect class="cls-3" x="191.61" y="101.11" width="14.19" height="10.91"/>
      <rect class="cls-3" x="224.89" y="87.8" width="32.31" height="26.63"/>
      <rect class="cls-3" x="225.99" y="89.11" width="14.19" height="10.91"/>
      <rect class="cls-3" x="225.99" y="101.99" width="14.19" height="10.91"/>
      <rect class="cls-3" x="241.92" y="89.11" width="14.19" height="10.91"/>
      <rect class="cls-3" x="241.92" y="101.99" width="14.19" height="10.91"/>
      <rect class="cls-3" x="115.56" y="148.46" width="32.31" height="26.63"/>
      <rect class="cls-3" x="116.65" y="149.77" width="14.19" height="10.91"/>
      <rect class="cls-3" x="116.65" y="162.65" width="14.19" height="10.91"/>
      <rect class="cls-3" x="132.58" y="149.77" width="14.19" height="10.91"/>
      <rect class="cls-3" x="132.58" y="162.65" width="14.19" height="10.91"/>
      <rect class="cls-3" x="175.46" y="148.46" width="32.31" height="26.63"/>
      <rect class="cls-3" x="176.55" y="149.77" width="14.19" height="10.91"/>
      <rect class="cls-3" x="176.55" y="162.65" width="14.19" height="10.91"/>
      <rect class="cls-3" x="192.48" y="149.77" width="14.19" height="10.91"/>
      <rect class="cls-3" x="192.48" y="162.65" width="14.19" height="10.91"/>
      <rect class="cls-3" x="224.89" y="148.46" width="32.31" height="26.63"/>
      <rect class="cls-3" x="225.99" y="149.77" width="14.19" height="10.91"/>
      <rect class="cls-3" x="225.99" y="162.65" width="14.19" height="10.91"/>
      <rect class="cls-3" x="241.92" y="149.77" width="14.19" height="10.91"/>
      <rect class="cls-3" x="241.92" y="162.65" width="14.19" height="10.91"/>
      <rect class="cls-3" x="276.08" y="148.46" width="32.31" height="26.63"/>
      <rect class="cls-3" x="277.17" y="149.77" width="14.19" height="10.91"/>
      <rect class="cls-3" x="277.17" y="162.65" width="14.19" height="10.91"/>
      <rect class="cls-3" x="293.11" y="149.77" width="14.19" height="10.91"/>
      <rect class="cls-3" x="293.11" y="162.65" width="14.19" height="10.91"/>
      <rect class="cls-3" x="224.89" y="209.13" width="32.31" height="26.63"/>
      <rect class="cls-3" x="225.99" y="210.44" width="14.19" height="10.91"/>
      <rect class="cls-3" x="225.99" y="223.32" width="14.19" height="10.91"/>
      <rect class="cls-3" x="241.92" y="210.44" width="14.19" height="10.91"/>
      <rect class="cls-3" x="241.92" y="223.32" width="14.19" height="10.91"/>
      <rect class="cls-3" x="276.95" y="210" width="32.31" height="26.63"/>
      <rect class="cls-3" x="278.04" y="211.31" width="14.19" height="10.91"/>
      <rect class="cls-3" x="278.04" y="224.19" width="14.19" height="10.91"/>
      <rect class="cls-3" x="293.98" y="211.31" width="14.19" height="10.91"/>
      <rect class="cls-3" x="293.98" y="224.19" width="14.19" height="10.91"/>
      <rect class="cls-3" x="176.33" y="210" width="32.31" height="26.63"/>
      <rect class="cls-3" x="177.42" y="211.31" width="14.19" height="10.91"/>
      <rect class="cls-3" x="177.42" y="224.19" width="14.19" height="10.91"/>
      <rect class="cls-3" x="193.36" y="211.31" width="14.19" height="10.91"/>
      <rect class="cls-3" x="193.36" y="224.19" width="14.19" height="10.91"/>
      <rect class="cls-3" x="116.43" y="210" width="32.31" height="26.63"/>
      <rect class="cls-3" x="117.52" y="211.31" width="14.19" height="10.91"/>
      <rect class="cls-3" x="117.52" y="224.19" width="14.19" height="10.91"/>
      <rect class="cls-3" x="133.46" y="211.31" width="14.19" height="10.91"/>
      <rect class="cls-3" x="133.46" y="224.19" width="14.19" height="10.91"/>
      <rect class="cls-3" x="117.3" y="267" width="32.31" height="26.63"/>
      <rect class="cls-3" x="118.39" y="268.31" width="14.19" height="10.91"/>
      <rect class="cls-3" x="118.39" y="281.19" width="14.19" height="10.91"/>
      <rect class="cls-3" x="134.33" y="268.31" width="14.19" height="10.91"/>
      <rect class="cls-3" x="134.33" y="281.19" width="14.19" height="10.91"/>
      <rect class="cls-3" x="277.83" y="267" width="32.31" height="26.63"/>
      <rect class="cls-3" x="278.92" y="268.31" width="14.19" height="10.91"/>
      <rect class="cls-3" x="278.92" y="281.19" width="14.19" height="10.91"/>
      <rect class="cls-3" x="294.85" y="268.31" width="14.19" height="10.91"/>
      <rect class="cls-3" x="294.85" y="281.19" width="14.19" height="10.91"/>
      <rect class="cls-3" x="275.21" y="88.02" width="32.31" height="26.63"/>
      <rect class="cls-3" x="276.3" y="89.32" width="14.19" height="10.91"/>
      <rect class="cls-3" x="276.3" y="102.2" width="14.19" height="10.91"/>
      <rect class="cls-3" x="292.23" y="89.32" width="14.19" height="10.91"/>
      <rect class="cls-3" x="292.23" y="102.2" width="14.19" height="10.91"/>
      <rect class="cls-2" x="191.25" y="258.45" width="48.57" height="74.77"/>
    </g>
  </g>
</svg>