<?xml version="1.0" encoding="UTF-8"?>
<svg id="Layer_2" data-name="Layer 2" xmlns="http://www.w3.org/2000/svg" viewBox="0 0 795.16 682.62">
  <defs>
    <style>
      .cls-1 {
        fill: #29abe2;
      }

      .cls-2 {
        fill: #c69c6d;
      }

      .cls-3 {
        fill: red;
      }

      .cls-4 {
        fill: #f2f2f2;
      }

      .cls-5 {
        font-family: BrushScriptMT, 'Brush Script MT';
        font-size: 52.75px;
      }

      .cls-6 {
        fill: #ff7bac;
      }

      .cls-7 {
        fill: none;
        stroke: #231f20;
        stroke-miterlimit: 10;
        stroke-width: .75px;
      }
    </style>
  </defs>
  <g id="Layer_1-2" data-name="Layer 1">
    <g>
      <g>
        <g>
          <path class="cls-6" d="M384.94,492.7c-.09-.16-.31-.56-.66-1.2,4.3.03,6.7.05,6.7.05-.02,1.82,15.63,1.2,38.49-.68,61.61-5.08,175.56-19.29,175.56-19.29,4.68,5,80.66-11.8,129.66-17.24,13.84-1.56,25.53-2.19,32.85-1.18,33.24,4.61,26.02,11.62,27.23,28.03.45,6.09-9.84,23.3-27.44,45.05h-.02c-405.62,99.15-716.17,31.48-720.11,30.62-26.64-26.44-37.02-43.64-37.02-43.64-20.02-16.41-3.21-28.01-3.21-28.01-2.58-6.23,22.76-8.05,54.38-7.67l-.64,1.41s.73-.5,2.1-1.39c41.35.56,92.75,4.72,106.68,7.65,22,4.61,179,6.04,214.4,6.3.36.4.69.8,1.04,1.2Z"/>
          <path class="cls-1" d="M767.32,526.25h.02c-29.78,36.77-80.54,86.52-135.89,117.47-88.07,49.25-251.38,38.02-338.65,36.03s-134.5-37.62-134.5-37.62c-52.09-31.93-87.81-62.12-111.09-85.26,3.94.87,314.49,68.54,720.11-30.62Z"/>
          <path class="cls-4" d="M721.33,446.53c-42.01-6.38-173.38-24.44-205.55-6.38.73-.94,30.34-41.58-69.89-299.83,27.42,61.13,83.24,163.38,173.15,232.61,58.09,44.72,87.56,65.01,102.29,73.6Z"/>
          <path class="cls-3" d="M535.78,59.48s32.63.4,30.43,9.61c-2.2,9.21-52.04,9.61-52.04,9.61,0,0-96.18-1.6-96.18-5.6V25.41l16.37-.61s112.42-4.25,113.43,6.82c0,0,8.81,3.05-23.61,12.65-32.44,9.61,11.6,15.21,11.6,15.21Z"/>
          <path class="cls-4" d="M445.89,140.31c100.23,258.25,70.62,298.89,69.89,299.83l-.02.02s-95.87,32.44-86.47,48.45h-7.2s31.02-79.86,28.01-162.12c-3-82.22-9.19-169.82-24.77-237.64.59,1.79,7.22,21.77,20.56,51.47Z"/>
          <path class="cls-2" d="M417.98,73.1v417.06l-27.01,1.41s6-461.15,7.62-476.76c1.61-15.61,14-14.4,14-14.4,4.2,8,5.39,12.4,5.39,12.4v60.3Z"/>
          <path class="cls-4" d="M384.28,491.5h-.38c-13.5-15.28-42.19-29.75-114.36-47.93,0,0-17.97-178.72,45.67-311.52,0,0,44.87-73.79,66.54-94.9,5.92-3.68,9.23-5.53,9.23-5.53,0,0-30.03,107.48-49.25,230.57-17.99,115.35,35.72,217,42.55,229.32Z"/>
          <path class="cls-4" d="M381.74,37.15c-21.67,21.11-66.54,94.9-66.54,94.9-63.64,132.8-45.67,311.52-45.67,311.52-7.82-1.98-16.17-3.99-25.07-6.05-84.79-19.71-167.56,30.86-181.65,40.04-.49-.02-.97-.02-1.46-.02,2.5-5.62,15-33.63,77.42-173.32C206.08,153.58,344.78,60.07,381.74,37.15Z"/>
        </g>
        <g>
          <path class="cls-7" d="M384.97,492.75s-.02-.02-.03-.05c-.09-.16-.31-.56-.66-1.2-6.83-12.32-60.54-113.96-42.55-229.32,19.22-123.09,49.25-230.57,49.25-230.57,0,0-3.31,1.86-9.23,5.53-36.96,22.91-175.67,116.43-242.97,267.06-62.41,139.69-74.92,167.7-77.42,173.32l-.64,1.41s.73-.5,2.1-1.39c14.09-9.18,96.86-59.74,181.65-40.04,8.9,2.06,17.24,4.08,25.07,6.05,72.18,18.18,100.87,32.65,114.36,47.93.36.4.69.8,1.04,1.2"/>
          <path class="cls-7" d="M417.98,25.41v-12.61s-1.2-4.41-5.39-12.4c0,0-12.39-1.21-14,14.4-1.61,15.61-7.62,476.76-7.62,476.76l27.01-1.41V25.41Z"/>
          <path class="cls-7" d="M417.98,25.41l16.37-.61s112.42-4.25,113.43,6.82c0,0,8.81,3.05-23.61,12.65-32.44,9.61,11.6,15.21,11.6,15.21,0,0,32.63.4,30.43,9.61-2.2,9.21-52.04,9.61-52.04,9.61,0,0-96.18-1.6-96.18-5.6"/>
          <path class="cls-7" d="M515.76,440.16s-95.87,32.44-86.47,48.45h-7.2s31.02-79.86,28.01-162.12c-3-82.22-9.19-169.82-24.77-237.64"/>
          <path class="cls-7" d="M425.33,88.85c.59,1.79,7.22,21.77,20.56,51.47,27.42,61.13,83.24,163.38,173.15,232.61,58.09,44.72,87.56,65.01,102.29,73.6,7.98,4.65,11.62,5.86,13.13,5.67,2.22-.29-.14-3.63-.14-3.63,0,0-4.79-.8-12.99-2.05-42.01-6.38-173.38-24.44-205.55-6.38"/>
          <path class="cls-7" d="M425.33,88.85c0-.05-.02-.07-.02-.09"/>
          <path class="cls-7" d="M390.97,491.56s-2.39-.02-6.7-.05h-.38c-35.4-.26-192.4-1.68-214.4-6.3-13.93-2.93-65.33-7.09-106.68-7.65-.49-.02-.97-.02-1.46-.02-31.62-.38-56.97,1.44-54.38,7.67,0,0-16.81,11.6,3.21,28.01,0,0,10.37,17.21,37.02,43.64,23.28,23.14,58.99,53.32,111.09,85.26,0,0,47.23,35.63,134.5,37.62s250.58,13.22,338.65-36.03c55.35-30.95,106.11-80.69,135.89-117.47,17.61-21.75,27.89-38.96,27.44-45.05-1.21-16.41,6-23.42-27.23-28.03-7.32-1.01-19.01-.38-32.85,1.18-49,5.45-124.98,22.24-129.66,17.24,0,0-113.95,14.21-175.56,19.29-22.86,1.87-38.51,2.5-38.49.68Z"/>
          <path class="cls-7" d="M269.53,443.58s-17.97-178.72,45.67-311.52c0,0,44.87-73.79,66.54-94.9,4.02-3.94,7.23-6.04,9.23-5.53"/>
          <path class="cls-7" d="M515.76,440.16l.02-.02c.73-.94,30.34-41.58-69.89-299.83-6.33-16.31-13.17-33.48-20.57-51.55,0-.02-.02-.03-.02-.05"/>
          <path class="cls-7" d="M47.17,556.86h.03c3.94.87,314.49,68.54,720.11-30.62"/>
        </g>
      </g>
      <text class="cls-5" transform="translate(116.84 543.15) rotate(7.49)"><tspan x="0" y="0"> </tspan></text>
      <text class="cls-5" transform="translate(131.45 545.07) rotate(7.02)"><tspan x="0" y="0"> </tspan></text>
      <text class="cls-5" transform="translate(146.09 546.87) rotate(6.54)"><tspan x="0" y="0"> </tspan></text>
      <text class="cls-5" transform="translate(160.72 548.55) rotate(6.06)"><tspan x="0" y="0"> </tspan></text>
      <text class="cls-5" transform="translate(175.38 550.11) rotate(5.58)"><tspan x="0" y="0"> </tspan></text>
      <text class="cls-5" transform="translate(190.05 551.54) rotate(5.1)"><tspan x="0" y="0"> </tspan></text>
      <text class="cls-5" transform="translate(204.74 552.85) rotate(4.61)"><tspan x="0" y="0"> </tspan></text>
      <text class="cls-5" transform="translate(219.42 554.04) rotate(4.12)"><tspan x="0" y="0"> </tspan></text>
      <text class="cls-5" transform="translate(234.13 555.1) rotate(3.63)"><tspan x="0" y="0"> </tspan></text>
      <text class="cls-5" transform="translate(248.79 556.1) rotate(2.79)"><tspan x="0" y="0">K</tspan></text>
      <text class="cls-5" transform="translate(283.21 557.71) rotate(1.92)"><tspan x="0" y="0">ø</tspan></text>
      <text class="cls-5" transform="translate(299.64 558.26) rotate(1.34)"><tspan x="0" y="0">b</tspan></text>
      <text class="cls-5" transform="translate(316.6 558.66) rotate(.77)"><tspan x="0" y="0">e</tspan></text>
      <text class="cls-5" transform="translate(331.91 558.87) rotate(.16)"><tspan x="0" y="0">n</tspan></text>
      <text class="cls-5" transform="translate(351.07 558.93) rotate(-.53)"><tspan x="0" y="0">h</tspan></text>
      <text class="cls-5" transform="translate(370.23 558.76) rotate(-1.26)"><tspan x="0" y="0">a</tspan></text>
      <text class="cls-5" transform="translate(391.55 558.28) rotate(-1.96)"><tspan x="0" y="0">v</tspan></text>
      <text class="cls-5" transform="translate(408.48 557.71) rotate(-2.66)"><tspan x="0" y="0">n</tspan></text>
      <text class="cls-5" transform="translate(427.64 556.82) rotate(-3.27)"><tspan x="0" y="0">s</tspan></text>
      <text class="cls-5" transform="translate(443.99 555.88) rotate(-3.84)"><tspan x="0" y="0"> </tspan></text>
      <text class="cls-5" transform="translate(458.66 554.97) rotate(-4.72)"><tspan x="0" y="0">P</tspan></text>
      <text class="cls-5" transform="translate(490.07 552.32) rotate(-5.58)"><tspan x="0" y="0">e</tspan></text>
      <text class="cls-5" transform="translate(505.3 550.83) rotate(-6.18)"><tspan x="0" y="0">r</tspan></text>
      <text class="cls-5" transform="translate(520.54 549.18) rotate(-6.73)"><tspan x="0" y="0">l</tspan></text>
      <text class="cls-5" transform="translate(532.43 547.78) rotate(-7.32)"><tspan x="0" y="0">e</tspan></text>
      <text class="cls-5" transform="translate(547.62 545.83) rotate(-8.04)"><tspan x="0" y="0">r</tspan></text>
    </g>
  </g>
</svg>